HIERARCHY
ROOT Hips
{
	OFFSET 0.000000 88.474243 0.000000
	CHANNELS 6 Xposition Yposition Zposition Zrotation Yrotation Xrotation 
	JOINT Hips_Spine
	{
		OFFSET 0.000000 0.000000 0.000000
		CHANNELS 3 Zrotation Yrotation Xrotation
		JOINT Spine
		{
			OFFSET 0.005100 8.711998 -0.691000
			CHANNELS 3 Zrotation Yrotation Xrotation
			JOINT Spine1
			{
				OFFSET -0.009200 8.660301 -1.275000
				CHANNELS 3 Zrotation Yrotation Xrotation
				JOINT Spine2
				{
					OFFSET 0.006300 9.852501 -1.857000
					CHANNELS 3 Zrotation Yrotation Xrotation
					JOINT Spine2_Neck
					{
						OFFSET 0.000000 0.000000 0.000000
						CHANNELS 3 Zrotation Yrotation Xrotation
						JOINT Neck
						{
							OFFSET 0.016300 11.420799 -0.263300
							CHANNELS 3 Zrotation Yrotation Xrotation
							End Site #name: Head
							{
								OFFSET -0.019200 9.262405 2.362500
							}
						}
					}
					JOINT Spine2_LeftShoulder
					{
						OFFSET 0.000000 0.000000 0.000000
						CHANNELS 3 Zrotation Yrotation Xrotation
						JOINT LeftShoulder
						{
							OFFSET 5.616900 6.732201 -0.345700
							CHANNELS 3 Zrotation Yrotation Xrotation
							JOINT LeftArm
							{
								OFFSET 10.664888 -0.183372 -2.440700
								CHANNELS 3 Zrotation Yrotation Xrotation
								JOINT LeftForeArm
								{
									OFFSET 27.459126 0.000000 0.000000
									CHANNELS 3 Zrotation Yrotation Xrotation
									End Site #name: LeftHand
									{
										OFFSET 21.306858 0.000000 0.000000
									}
								}
							}
						}
					}
					JOINT Spine2_RightShoulder
					{
						OFFSET 0.000000 0.000000 0.000000
						CHANNELS 3 Zrotation Yrotation Xrotation
						JOINT RightShoulder
						{
							OFFSET -5.580300 6.737503 -0.344400
							CHANNELS 3 Zrotation Yrotation Xrotation
							JOINT RightArm
							{
								OFFSET -10.679335 -0.188484 -2.383900
								CHANNELS 3 Zrotation Yrotation Xrotation
								JOINT RightForeArm
								{
									OFFSET -27.503529 0.000000 0.000000
									CHANNELS 3 Zrotation Yrotation Xrotation
									End Site #name: RightHand
									{
										OFFSET -21.306808 0.000000 0.000000
									}
								}
							}
						}
					}
				}
			}
		}
	}
	JOINT Hips_LeftUpLeg
	{
		OFFSET 0.000000 0.000000 0.000000
		CHANNELS 3 Zrotation Yrotation Xrotation
		JOINT LeftUpLeg
		{
			OFFSET 6.857700 -6.739601 0.312100
			CHANNELS 3 Zrotation Yrotation Xrotation
			JOINT LeftLeg
			{
				OFFSET -0.367590 -34.731552 -4.572400
				CHANNELS 3 Zrotation Yrotation Xrotation
				End Site #name: LeftFoot
				{
					OFFSET 0.367590 -34.656704 -6.067400
				}
			}
		}
	}
	JOINT Hips_RightUpLeg
	{
		OFFSET 0.000000 0.000000 0.000000
		CHANNELS 3 Zrotation Yrotation Xrotation
		JOINT RightUpLeg
		{
			OFFSET -6.876100 -6.733299 0.301000
			CHANNELS 3 Zrotation Yrotation Xrotation
			JOINT RightLeg
			{
				OFFSET 0.347353 -34.795158 -4.515900
				CHANNELS 3 Zrotation Yrotation Xrotation
				End Site #name: RightFoot
				{
					OFFSET -0.347353 -34.589367 -6.070300
				}
			}
		}
	}
}
MOTION
Frames: 18
Frame Time: 0.041667
0.278524 -0.055691 -0.182372 -1.551501 -13.709845 -0.190007 -0.000000 -0.000000 0.000000 -1.702744 1.261172 0.743672 0.377178 0.999202 -0.167015 0.000000 0.000000 0.000000 -2.965282 2.166654 -0.989986 3.416922 -5.712499 1.015015 -3.702851 2.491488 4.660297 0.802169 -8.266487 -1.333914 -57.452358 -38.305939 0.354320 -5.308505 -74.087032 5.334430 0.643558 2.120080 2.544357 10.513836 -11.269637 -1.615833 50.775922 42.355458 1.390512 -174.879896 59.926103 -176.232236 -0.000000 0.000000 0.000000 14.966581 0.595334 -47.947347 12.676493 6.690993 41.603275 -0.000000 0.000000 -0.000000 -2.799244 -3.045462 -22.889394 -4.902453 5.464561 56.999611 
0.838768 -0.455016 -0.311364 -0.294080 -29.958292 -1.441656 -0.000000 0.000000 0.000000 2.438412 1.965106 5.240393 0.226319 1.422309 5.588230 0.000000 0.000000 0.000000 -1.095533 -0.014478 3.586438 0.142820 -5.414454 -1.094378 -1.216030 0.427179 8.204527 1.913148 -6.816741 -2.777690 -66.314952 -38.141173 2.166887 -136.355541 -84.443539 136.588848 -0.643638 2.848037 4.732991 18.263509 -11.809012 -1.468433 42.148586 60.558897 -4.333653 -174.667640 50.428844 -179.130435 -0.000000 0.000000 0.000000 14.825132 18.790452 -44.631323 10.613726 10.876673 43.669421 -0.000000 0.000000 -0.000000 -3.577326 -3.770840 -25.226499 1.155591 2.882580 39.456477 
1.485150 -0.400877 -0.495679 -1.028441 -35.048397 -0.706044 -0.000000 0.000000 0.000000 4.086226 1.735969 8.274053 0.267908 1.387445 6.240364 0.000000 0.000000 0.000000 -1.268234 -0.078401 4.477797 -2.167176 -3.908681 -2.857175 -0.906489 -0.350749 8.263337 1.114095 -4.075709 -3.586560 -72.866208 -42.616356 5.531297 -168.852316 -71.542612 169.475000 -0.491965 2.469724 5.295237 15.713381 -9.857261 -2.712218 48.200450 57.650408 0.989010 -177.563485 56.172006 178.496170 -0.000000 0.000000 0.000000 13.589246 22.922294 -47.444181 4.602092 9.161354 47.438571 -0.000000 0.000000 -0.000000 -7.780612 -5.260706 -23.874534 -0.133713 2.278879 36.871056 
2.255010 -0.534545 -0.785133 -1.619178 -38.311475 1.530151 -0.000000 0.000000 0.000000 3.945653 1.869049 8.640083 0.507432 1.291157 6.920501 0.000000 0.000000 0.000000 -1.251495 -0.008201 5.162916 -2.633842 -2.635413 -0.753764 -0.491361 -0.579844 8.271447 0.777541 -1.689579 -4.398627 -73.262878 -48.200506 3.587838 -168.119547 -73.938555 169.013421 -0.753123 2.380289 5.363578 13.054860 -7.127759 -2.482106 46.913761 60.596676 0.864090 179.206187 58.156779 177.991867 -0.000000 0.000000 0.000000 12.770548 30.989694 -47.256371 2.208098 8.880295 49.772692 -0.000000 -0.000000 0.000000 -6.306403 -6.788742 -26.165378 -1.284124 1.625297 41.000240 
3.161419 -0.841309 -1.110641 -2.720470 -40.424466 3.475182 -0.000000 0.000000 0.000000 4.145141 1.983869 9.776305 0.728858 1.274216 7.385948 0.000000 0.000000 0.000000 -0.925941 0.166397 6.143073 -2.726385 -1.196747 0.508124 0.056933 -0.554408 8.171262 0.600792 0.732533 -5.074170 -71.649782 -49.408788 -0.977664 -165.915243 -76.798391 167.309253 -0.917666 2.118571 5.518984 11.383681 -5.755036 -2.146581 44.603489 62.455000 0.022386 177.678879 63.303961 177.794743 -0.000000 0.000000 0.000000 12.672468 35.764720 -47.735351 1.483754 8.681612 52.548062 -0.000000 -0.000000 0.000000 -5.124685 -6.276714 -26.137954 -1.363153 1.257846 42.462826 
4.154468 -1.367451 -1.490549 -3.995049 -41.651729 5.948546 -0.000000 0.000000 0.000000 3.919681 2.024527 10.626264 0.877966 1.319806 7.740736 0.000000 0.000000 0.000000 -0.592863 0.311148 6.920821 -2.561364 -0.119668 1.322171 0.502542 -0.554078 8.198724 0.255212 2.144265 -5.456285 -69.198683 -49.659611 -5.151312 -163.321570 -78.963327 165.173975 -0.994687 1.925065 5.739166 10.527614 -5.279401 -1.918377 42.416363 62.391050 -1.036220 176.950388 67.371790 177.674004 -0.000000 0.000000 0.000000 11.729311 38.109455 -49.517502 0.737776 8.507425 53.266617 -0.000000 -0.000000 0.000000 -3.381764 -5.141823 -28.268638 -1.478128 1.106314 43.256418 
5.206022 -2.196216 -1.934837 -5.484338 -42.101937 9.485749 -0.000000 0.000000 0.000000 3.380177 2.076217 11.476391 0.978856 1.422846 8.034103 0.000000 0.000000 0.000000 -0.300941 0.422604 7.513226 -2.063933 0.577237 1.493811 0.796303 -0.553964 8.304282 -0.104774 2.731815 -5.578072 -67.662222 -49.253989 -7.429413 -157.528507 -81.637414 159.723667 -1.042560 1.841340 6.027453 9.997250 -5.478379 -1.692810 42.363783 60.120699 0.106516 176.745709 70.347398 177.867270 -0.000000 0.000000 0.000000 9.207611 39.668787 -54.808635 -0.154359 8.369132 54.444690 -0.000000 -0.000000 0.000000 -1.316973 -5.306921 -33.937195 -1.799556 0.664403 45.400368 
6.279806 -3.365799 -2.417505 -7.030668 -42.881298 13.829981 -0.000000 0.000000 0.000000 2.648639 2.082207 12.312681 1.025655 1.499021 8.269834 0.000000 0.000000 0.000000 -0.156608 0.579366 7.923648 -0.809573 1.066792 1.544127 0.969611 -0.588222 8.460822 -0.649290 2.599420 -5.548315 -67.736330 -48.117985 -7.999732 -140.190136 -84.886887 142.592398 -1.104161 1.771743 6.344162 9.693324 -6.153902 -1.552703 42.715508 57.366182 2.081921 176.655128 72.397287 178.176262 -0.000000 0.000000 0.000000 4.880737 40.850121 -62.616419 -1.350364 7.987395 55.684443 -0.000000 -0.000000 0.000000 0.565031 -6.696574 -42.341289 -2.063776 0.500193 48.452843 
7.367682 -4.889607 -2.851287 -8.461776 -43.630588 18.531823 -0.000000 0.000000 0.000000 1.933854 1.946635 13.247753 1.015293 1.541130 8.418084 0.000000 0.000000 0.000000 -0.068358 0.762764 8.032721 0.251231 1.327419 1.050773 1.029055 -0.702359 8.618919 -1.311072 1.880683 -5.398949 -69.105553 -46.503123 -7.212706 -88.706806 -86.549254 91.128727 -1.158462 1.697958 6.669758 9.578230 -6.810393 -1.397924 43.700814 54.381861 5.179582 176.267394 74.475375 178.343803 -0.000000 0.000000 0.000000 -0.027885 41.364648 -70.855059 -2.634666 7.482658 56.082774 -0.000000 -0.000000 0.000000 1.977823 -8.448118 -52.563698 -2.385196 0.567715 52.200621 
8.418383 -6.769049 -3.139882 -9.562791 -43.782707 22.588319 -0.000000 0.000000 0.000000 1.298321 1.816924 14.271179 0.993243 1.580482 8.600852 0.000000 0.000000 0.000000 -0.012836 0.838609 8.103334 0.797053 1.352036 0.660688 1.061502 -0.847087 8.745231 -1.857479 0.973806 -5.231890 -70.698546 -44.591427 -6.388861 -53.892909 -85.518949 56.242274 -1.207107 1.605732 6.866949 9.611230 -7.310381 -1.318704 44.634211 51.446887 8.243516 176.229202 76.014476 178.900008 -0.000000 0.000000 0.000000 -4.823963 41.389373 -78.529374 -3.729172 7.116290 56.174051 -0.000000 -0.000000 0.000000 3.057497 -10.108803 -61.118170 -2.767951 0.557747 56.719796 
9.413707 -8.992333 -3.270707 -10.231926 -43.454442 26.123864 -0.000000 0.000000 0.000000 0.799371 1.728038 15.269028 0.996134 1.625916 8.805119 0.000000 0.000000 0.000000 -0.003102 0.836932 8.208868 1.034624 1.148465 0.524375 1.078481 -1.020103 8.901366 -2.239730 -0.017242 -5.064942 -72.630047 -42.645252 -5.597214 -42.877130 -84.410713 45.059245 -1.223635 1.504794 6.961569 9.763211 -8.163888 -1.437181 45.526046 48.724052 11.125164 176.857398 76.919976 -179.955181 -0.000000 0.000000 0.000000 -9.832066 41.092392 -86.120916 -4.607080 6.772459 56.709114 -0.000000 -0.000000 0.000000 3.847741 -11.218138 -68.595440 -3.118553 0.581592 60.648884 
10.301796 -11.391977 -3.221035 -10.617824 -42.950661 29.424737 -0.000000 0.000000 0.000000 0.356048 1.663305 16.251501 1.014849 1.696683 9.032992 0.000000 0.000000 0.000000 -0.020728 0.811776 8.347981 1.057116 0.890550 0.494402 1.073356 -1.230138 9.039745 -2.438089 -1.028344 -4.931909 -74.726650 -41.088898 -4.592682 -44.041697 -84.345915 46.010555 -1.234806 1.407814 6.975539 9.886955 -9.197267 -1.666280 46.086587 46.570449 13.114152 178.202879 76.966037 -178.200320 -0.000000 0.000000 0.000000 -14.506022 40.129735 -93.334404 -5.240416 6.436689 58.282545 -0.000000 -0.000000 0.000000 4.414727 -11.533735 -74.639221 -3.626198 0.605569 64.635306 
11.043574 -13.876235 -2.915254 -10.837642 -42.551304 32.536042 -0.000000 0.000000 0.000000 -0.009186 1.583496 17.211820 1.062838 1.760724 9.304849 0.000000 0.000000 0.000000 -0.107177 0.765640 8.493490 1.043018 0.513208 0.556219 1.046219 -1.487649 9.160256 -2.520503 -2.020930 -4.837559 -76.927551 -39.986853 -3.378840 -50.223888 -84.816615 51.919813 -1.251828 1.310987 6.917508 9.863124 -9.905752 -1.881133 46.654737 45.359027 14.206042 -179.999438 76.592631 -176.195321 -0.000000 0.000000 0.000000 -18.584408 38.845703 -99.590680 -5.470079 6.324531 60.767685 -0.000000 -0.000000 0.000000 4.986785 -11.450143 -79.954557 -4.256314 0.574521 69.008695 
11.623152 -16.392173 -2.322633 -11.183627 -43.054877 35.626552 -0.000000 0.000000 0.000000 -0.251609 1.485961 17.985689 1.117389 1.787511 9.581037 0.000000 0.000000 0.000000 -0.209387 0.707741 8.627395 0.978484 0.094455 0.649373 1.014945 -1.652995 9.258057 -2.550256 -2.435479 -4.818867 -78.543720 -39.173253 -3.196991 -56.105068 -85.308419 57.453778 -1.281496 1.212647 6.825697 9.496059 -10.323499 -1.693717 46.656707 44.968373 15.023947 -178.199844 76.310136 -174.355604 -0.000000 0.000000 0.000000 -21.555806 37.256287 -104.439292 -4.810199 6.552177 63.353390 -0.000000 0.000000 0.000000 5.074982 -11.195784 -83.987132 -4.728141 0.695191 73.204453 
12.020785 -18.854805 -1.413507 -11.750052 -44.322055 38.728128 -0.000000 0.000000 0.000000 -0.412768 1.380651 18.591595 1.175983 1.776895 9.896170 0.000000 0.000000 0.000000 -0.349220 0.643422 8.746431 0.866871 -0.394030 0.741195 0.971578 -1.722101 9.347304 -2.582894 -2.256339 -4.874619 -79.392519 -38.581305 -4.184189 -66.792081 -86.022809 67.719202 -1.335974 1.127635 6.717446 8.892997 -10.336675 -1.460532 46.462300 45.500607 15.479754 -176.504140 76.168853 -172.754785 -0.000000 0.000000 0.000000 -23.518165 35.755204 -107.825967 -3.806660 6.934650 65.656822 -0.000000 0.000000 0.000000 4.903372 -10.684622 -86.153317 -4.631262 1.210912 76.152611 
12.216710 -21.129676 -0.157407 -12.297844 -45.847354 41.247416 -0.000000 0.000000 0.000000 -0.468636 1.275701 19.033671 1.237701 1.725667 10.269026 0.000000 0.000000 0.000000 -0.513987 0.556263 8.851667 0.756103 -0.940051 0.876749 0.928981 -1.686778 9.403249 -2.628008 -1.525923 -5.014620 -79.891383 -37.968231 -5.809226 -72.185422 -86.523771 72.629532 -1.405028 1.043862 6.594855 8.203815 -10.250678 -1.435680 46.184400 46.654667 15.356354 -174.569289 76.414288 -170.984265 -0.000000 0.000000 0.000000 -24.264223 34.524200 -109.478675 -2.740555 7.336279 67.717463 -0.000000 0.000000 0.000000 4.777880 -9.656075 -86.983601 -4.208562 1.823727 78.150710 
12.191646 -23.153533 1.449935 -12.813795 -47.781713 43.109152 -0.000000 0.000000 0.000000 -0.396882 1.181017 19.301191 1.286962 1.664727 10.621947 0.000000 0.000000 0.000000 -0.706125 0.450073 8.919880 0.673333 -1.509837 1.058617 0.882585 -1.536984 9.398636 -2.660042 -0.245795 -5.256198 -80.157964 -37.474028 -8.121909 -79.723046 -87.039950 79.667118 -1.501673 0.983091 6.458887 7.401022 -10.133951 -1.563394 45.963030 48.078353 14.880001 -172.254071 76.889501 -168.900221 -0.000000 0.000000 0.000000 -23.964222 33.881298 -109.366162 -1.796609 7.565742 69.320830 -0.000000 0.000000 0.000000 4.464808 -8.117086 -86.080831 -3.477542 2.431509 79.691827 
11.947376 -24.872919 3.390767 -13.828890 -49.881413 44.191003 -0.000000 0.000000 0.000000 -0.299647 1.118411 19.285773 1.272527 1.583116 10.866690 0.000000 0.000000 0.000000 -0.831986 0.452120 8.849338 0.573847 -2.087008 1.123079 0.828026 -1.352167 9.338178 -2.692463 1.193302 -5.539746 -80.390040 -37.313841 -10.484747 -114.067489 -87.207512 113.540327 -1.592519 0.999624 6.349319 6.553105 -9.885071 -1.666740 46.414055 50.410591 14.631335 -170.023210 77.488633 -167.026494 -0.000000 0.000000 0.000000 -22.778754 34.003776 -107.948908 -1.346056 7.553027 71.421074 0.000000 0.000000 -0.000000 4.181534 -6.595095 -83.655427 -2.820997 2.706636 79.301351 
